# xmcd CD database file
#
# Track frame offsets:
#	150
#	25435
#	40950
#	54150
#	79130
#	97735
#	110067
#	129420
#	146850
#	172957
#	187684
#	205532
#
# Disc length: 2969 seconds
#
# Revision: 0
# Processed by: cddbd v1.5.2PL0 Copyright (c) Steve Scherf et al.
# Submitted via: CDex 1.51
#
DISCID=960b970c
DTITLE=Jose Alberto Buelta - Razón de Ser
DYEAR=1996
DGENRE=New Age
TTITLE0=Razón de Ser
TTITLE1=ElLugar de la Luz
TTITLE2=Al Norte
TTITLE3=Radio Universo
TTITLE4=Noche de Luna
TTITLE5=En la Hora Bruja
TTITLE6=Día a Día
TTITLE7=Fuera de la Ley
TTITLE8=Jugando a Amar
TTITLE9=Canción Para un Extraño
TTITLE10=Latino
TTITLE11=Supernova
EXTD=YEAR: 1996
EXTT0=
EXTT1=
EXTT2=
EXTT3=
EXTT4=
EXTT5=
EXTT6=
EXTT7=
EXTT8=
EXTT9=
EXTT10=
EXTT11=
PLAYORDER=
